<svg width="20" height="24" viewBox="0 0 20 24" fill="none" xmlns="http://www.w3.org/2000/svg">
<path d="M17.9893 22.2856H12.4283C13.3639 21.4909 14.2463 20.6409 15.0703 19.7409C18.1567 16.3583 19.7883 12.7924 19.7883 9.42852C19.7883 6.92792 18.7458 4.52974 16.8903 2.76155C15.0349 0.993359 12.5182 0 9.89413 0C7.27004 0 4.75343 0.993359 2.89792 2.76155C1.04241 4.52974 0 6.92792 0 9.42852C0 12.7924 1.63149 16.3583 4.71802 19.7409C5.54193 20.6409 6.4243 21.4909 7.35991 22.2856H1.79893C1.56038 22.2856 1.33159 22.3759 1.16291 22.5367C0.994231 22.6974 0.899466 22.9154 0.899466 23.1427C0.899466 23.37 0.994231 23.5881 1.16291 23.7488C1.33159 23.9096 1.56038 23.9999 1.79893 23.9999H17.9893C18.2279 23.9999 18.4567 23.9096 18.6253 23.7488C18.794 23.5881 18.8888 23.37 18.8888 23.1427C18.8888 22.9154 18.794 22.6974 18.6253 22.5367C18.4567 22.3759 18.2279 22.2856 17.9893 22.2856ZM9.89415 5.99997C10.6057 5.99997 11.3014 6.20105 11.893 6.57778C12.4847 6.95452 12.9458 7.48998 13.2182 8.11647C13.4904 8.74296 13.5617 9.43233 13.4229 10.0974C13.284 10.7625 12.9414 11.3734 12.4382 11.8529C11.9351 12.3324 11.294 12.6589 10.5961 12.7912C9.89814 12.9235 9.17473 12.8556 8.51731 12.596C7.85988 12.3366 7.29798 11.8972 6.90265 11.3333C6.5073 10.7695 6.29629 10.1066 6.29629 9.42852C6.29629 8.97827 6.38934 8.53244 6.57016 8.11646C6.75096 7.7005 7.01598 7.32253 7.35008 7.00416C7.68416 6.68579 8.08079 6.43325 8.51731 6.26094C8.95383 6.08864 9.42168 5.99997 9.89415 5.99997Z" fill="#1A1A1A"/>
</svg>
