<svg width="1357" height="61" viewBox="0 0 1357 61" fill="none" xmlns="http://www.w3.org/2000/svg">
<g filter="url(#filter0_d_0_119)">
<path d="M82.6328 37.0556H86.7923V29.925H88.6008L93.0187 37.0556H97.4624L92.5796 29.2016C94.7498 28.5557 96.3774 27.083 96.3774 24.2928V24.1895C96.3774 20.3658 93.613 18.5832 89.2467 18.5832H82.6328V37.0556ZM86.7923 27.083V21.7868H89.1434C91.1586 21.7868 92.2954 22.4327 92.2954 24.3186V24.422C92.2954 26.2047 91.2361 27.083 89.1434 27.083H86.7923Z" fill="black"/>
<path d="M104.602 37.3398C108.297 37.3398 110.622 35.7122 111.061 32.7927H107.522C107.289 33.9295 106.437 34.6787 104.706 34.6787C102.665 34.6787 101.45 33.387 101.347 31.1393H111.087V30.1059C111.087 25.2745 107.987 23.2336 104.499 23.2336C100.572 23.2336 97.5492 25.998 97.5492 30.2609V30.4675C97.5492 34.7821 100.52 37.3398 104.602 37.3398ZM101.399 28.8399C101.683 26.928 102.82 25.8172 104.499 25.8172C106.282 25.8172 107.315 26.7989 107.444 28.8399H101.399Z" fill="black"/>
<path d="M112.867 37.0558H116.588V17.4208H112.867V37.0558Z" fill="black"/>
<path d="M123.725 37.3394C125.947 37.3394 127.316 36.306 128.014 34.9367V37.0552H131.734V23.5432H128.014V31.4747C128.014 33.4641 126.774 34.4458 125.198 34.4458C123.597 34.4458 122.847 33.5674 122.847 31.7331V23.5432H119.127V32.2498C119.127 35.7893 121.09 37.3394 123.725 37.3394Z" fill="black"/>
<path d="M134.274 37.0556H138.021V29.0724C138.021 27.2381 139.183 26.308 140.63 26.308C141.948 26.308 142.748 27.083 142.748 28.8141V37.0556H146.469V29.0724C146.469 27.2381 147.631 26.308 149.078 26.308C150.421 26.308 151.197 27.083 151.197 28.8141V37.0556H154.917V28.4007C154.917 24.8096 152.979 23.2336 150.473 23.2336C148.768 23.2336 147.012 23.9569 145.926 25.5846C145.28 23.9829 143.937 23.2336 142.154 23.2336C140.139 23.2336 138.692 24.3445 138.021 25.6104V23.5436H134.274V37.0556Z" fill="black"/>
<path d="M163.567 37.3398C167.262 37.3398 169.588 35.7122 170.026 32.7927H166.487C166.254 33.9295 165.402 34.6787 163.671 34.6787C161.63 34.6787 160.416 33.387 160.313 31.1393H170.053V30.1059C170.053 25.2745 166.952 23.2336 163.464 23.2336C159.537 23.2336 156.514 25.998 156.514 30.2609V30.4675C156.514 34.7821 159.486 37.3398 163.567 37.3398ZM160.364 28.8399C160.649 26.928 161.786 25.8172 163.464 25.8172C165.247 25.8172 166.28 26.7989 166.41 28.8399H160.364Z" fill="black"/>
<path fill-rule="evenodd" clip-rule="evenodd" d="M68.318 19.6883L68.0668 19.2398C67.7429 18.6973 67.2859 18.2465 66.7392 17.93L54.7005 10.9867C54.1553 10.6705 53.5366 10.5034 52.9064 10.5023H52.3861C51.7558 10.5034 51.1371 10.6705 50.5919 10.9867L38.5533 17.948C38.0096 18.2624 37.558 18.714 37.2436 19.2577L36.9924 19.7062C36.6762 20.2513 36.5091 20.8702 36.508 21.5003V35.4049C36.5091 36.0351 36.6762 36.6539 36.9924 37.1991L37.2436 37.6476C37.5661 38.185 38.0159 38.6347 38.5533 38.9573L50.6099 45.9006C51.1523 46.2233 51.7729 46.3909 52.404 46.385H52.9064C53.5366 46.3838 54.1553 46.2168 54.7005 45.9006L66.7392 38.9394C67.2882 38.632 67.7416 38.1787 68.0488 37.6296L68.318 37.1811C68.6304 36.6344 68.7972 36.0166 68.8024 35.387V21.4824C68.8013 20.8522 68.6342 20.2334 68.318 19.6883ZM52.3861 14.0905H52.9064L63.42 20.1547L52.6552 26.3623L41.8904 20.1547L52.3861 14.0905ZM54.4493 41.8998L64.945 35.8356L65.2141 35.3871V23.2587L54.4493 29.4843V41.8998Z" fill="black"/>
</g>
<g filter="url(#filter1_d_0_119)">
<path d="M312.989 24.959C312.989 22.9114 311.004 20.7392 307.561 20.7392C303.694 20.7392 299.452 23.5703 298.796 29.2276C298.133 34.9472 301.694 37.4745 305.272 37.4745C308.849 37.4745 310.732 36.0808 312.644 34.2126C310.993 32.1332 308.863 33.1009 308.461 33.3035C308.015 33.5267 307.431 33.8355 306.243 33.8355C304.857 33.8355 303.451 33.2083 303.451 30.6346C312.313 29.7853 312.989 27.0079 312.989 24.959ZM308.597 25.3019C308.54 25.9328 308.281 27.025 303.797 27.6254C304.742 24.2671 306.546 24.0182 307.379 24.0182C308.16 24.0182 308.658 24.6234 308.597 25.3019ZM293.588 25.8474C293.588 25.8474 291.682 31.8245 291.534 32.326C291.483 31.8245 290.088 21.0883 290.088 21.0883C286.842 21.0883 285.105 23.3946 284.19 25.845C284.19 25.845 281.872 31.8391 281.684 32.3406C281.673 31.8708 281.327 25.9072 281.327 25.9072C281.131 22.9101 278.395 21.0955 276.178 21.0955L278.844 37.361C282.25 37.3499 284.073 35.0472 285.035 32.6018C285.035 32.6018 287.074 27.313 287.158 27.0726C287.179 27.302 288.625 37.361 288.625 37.361C292.033 37.361 293.872 35.2047 294.862 32.8471L299.644 21.0955C296.276 21.0955 294.503 23.3958 293.588 25.8474ZM325.507 20.7172C323.412 20.7172 321.797 21.8558 320.438 23.5386L320.44 23.5264L321.649 13.753C318.859 13.753 316.579 16.1814 316.146 19.7837L314.024 37.234C315.634 37.234 317.338 36.7667 318.258 35.5842C319.082 36.6422 320.306 37.4854 322.118 37.4854C326.823 37.4854 330.056 32.0173 330.056 26.8834C330.056 22.1987 327.777 20.7172 325.507 20.7172ZM325.075 29.1008C324.587 31.9709 322.992 33.9062 321.447 33.9062C319.89 33.9062 319.232 33.218 319.232 33.218C319.523 30.7091 319.715 29.1703 320.283 27.8451C320.849 26.5198 322.188 24.405 323.589 24.405C324.951 24.405 325.563 26.2318 325.075 29.1008ZM341.849 21.0968H338.556L338.572 20.9247C338.796 18.7745 339.311 17.6458 340.978 17.4725C342.117 17.3554 342.632 16.7635 342.751 16.1241C342.845 15.6225 343.164 13.8494 343.164 13.8494C336.557 13.8116 334.486 16.6634 333.958 20.9979L333.945 21.0955L333.881 21.098C332.808 21.098 331.631 22.3122 331.424 23.8546L331.352 24.4221H333.549L331.705 39.6869L331.146 42.4301L331.373 42.4374C334.457 42.3202 336.441 39.8882 336.879 36.3469L338.319 24.4221H339.351C340.362 24.4221 341.549 23.4093 341.769 21.7167L341.849 21.0968ZM358.941 20.8137C355.146 20.8137 351.569 23.6069 350.469 28.0013C349.371 32.3944 351.041 37.5818 356.618 37.5818C362.198 37.5818 365.404 32.1746 365.404 27.6852C365.404 23.1932 362.368 20.8137 358.941 20.8137ZM360.48 28.9702C360.283 30.9629 359.405 33.9734 357.003 33.9734C354.592 33.9734 354.934 30.4406 355.168 28.7639C355.418 26.9664 356.428 24.4221 358.577 24.4221C360.519 24.4221 360.702 26.7199 360.48 28.9702ZM384.145 25.8474C384.145 25.8474 382.239 31.8245 382.093 32.326C382.04 31.8245 380.645 21.0883 380.645 21.0883C377.399 21.0883 375.664 23.3946 374.748 25.845C374.748 25.845 372.43 31.8391 372.242 32.3406C372.231 31.8708 371.886 25.9072 371.886 25.9072C371.689 22.9101 368.952 21.0955 366.736 21.0955L369.401 37.361C372.807 37.3499 374.631 35.0472 375.593 32.6018C375.593 32.6018 377.632 27.313 377.716 27.0726C377.737 27.302 379.182 37.361 379.182 37.361C382.591 37.361 384.429 35.2047 385.419 32.8471L390.203 21.0955C386.834 21.0955 385.06 23.3958 384.145 25.8474ZM344.949 13.8494L342.184 36.1516L342.176 36.148L341.615 38.9059L341.841 38.9131C344.818 38.8765 346.931 36.2639 347.328 32.9691L348.926 20.1681C349.41 16.2693 347.086 13.8494 344.949 13.8494Z" fill="black"/>
</g>
<g filter="url(#filter2_d_0_119)">
<path d="M542.968 37.0556H547.127V29.925H548.936L553.354 37.0556H557.798L552.915 29.2016C555.085 28.5557 556.712 27.083 556.712 24.2928V24.1895C556.712 20.3658 553.948 18.5832 549.582 18.5832H542.968V37.0556ZM547.127 27.083V21.7868H549.478C551.494 21.7868 552.63 22.4327 552.63 24.3186V24.422C552.63 26.2047 551.571 27.083 549.478 27.083H547.127Z" fill="black"/>
<path d="M564.937 37.3398C568.632 37.3398 570.957 35.7122 571.396 32.7927H567.857C567.624 33.9295 566.772 34.6787 565.041 34.6787C563 34.6787 561.786 33.387 561.682 31.1393H571.422V30.1059C571.422 25.2745 568.322 23.2336 564.834 23.2336C560.907 23.2336 557.884 25.998 557.884 30.2609V30.4675C557.884 34.7821 560.855 37.3398 564.937 37.3398ZM561.734 28.8399C562.018 26.928 563.155 25.8172 564.834 25.8172C566.617 25.8172 567.65 26.7989 567.779 28.8399H561.734Z" fill="black"/>
<path d="M573.203 37.0558H576.923V17.4208H573.203V37.0558Z" fill="black"/>
<path d="M584.06 37.3394C586.282 37.3394 587.651 36.306 588.349 34.9367V37.0552H592.069V23.5432H588.349V31.4747C588.349 33.4641 587.109 34.4458 585.533 34.4458C583.932 34.4458 583.182 33.5674 583.182 31.7331V23.5432H579.462V32.2498C579.462 35.7893 581.425 37.3394 584.06 37.3394Z" fill="black"/>
<path d="M594.609 37.0556H598.356V29.0724C598.356 27.2381 599.518 26.308 600.965 26.308C602.283 26.308 603.084 27.083 603.084 28.8141V37.0556H606.804V29.0724C606.804 27.2381 607.966 26.308 609.413 26.308C610.756 26.308 611.532 27.083 611.532 28.8141V37.0556H615.252V28.4007C615.252 24.8096 613.315 23.2336 610.808 23.2336C609.103 23.2336 607.347 23.9569 606.261 25.5846C605.616 23.9829 604.272 23.2336 602.489 23.2336C600.474 23.2336 599.027 24.3445 598.356 25.6104V23.5436H594.609V37.0556Z" fill="black"/>
<path d="M623.902 37.3398C627.598 37.3398 629.923 35.7122 630.361 32.7927H626.822C626.589 33.9295 625.737 34.6787 624.006 34.6787C621.965 34.6787 620.751 33.387 620.648 31.1393H630.388V30.1059C630.388 25.2745 627.287 23.2336 623.799 23.2336C619.872 23.2336 616.849 25.998 616.849 30.2609V30.4675C616.849 34.7821 619.821 37.3398 623.902 37.3398ZM620.699 28.8399C620.984 26.928 622.121 25.8172 623.799 25.8172C625.582 25.8172 626.616 26.7989 626.745 28.8399H620.699Z" fill="black"/>
<path fill-rule="evenodd" clip-rule="evenodd" d="M528.653 19.6883L528.402 19.2398C528.078 18.6973 527.621 18.2465 527.074 17.93L515.036 10.9867C514.49 10.6705 513.872 10.5034 513.241 10.5023H512.721C512.091 10.5034 511.472 10.6705 510.927 10.9867L498.888 17.948C498.345 18.2624 497.893 18.714 497.579 19.2577L497.327 19.7062C497.011 20.2513 496.844 20.8702 496.843 21.5003V35.4049C496.844 36.0351 497.011 36.6539 497.327 37.1991L497.579 37.6476C497.901 38.185 498.351 38.6347 498.888 38.9573L510.945 45.9006C511.487 46.2233 512.108 46.3909 512.739 46.385H513.241C513.872 46.3838 514.49 46.2168 515.036 45.9006L527.074 38.9394C527.623 38.632 528.077 38.1787 528.384 37.6296L528.653 37.1811C528.965 36.6344 529.132 36.0166 529.137 35.387V21.4824C529.136 20.8522 528.969 20.2334 528.653 19.6883ZM512.721 14.0905H513.241L523.755 20.1547L512.99 26.3623L502.225 20.1547L512.721 14.0905ZM514.784 41.8998L525.28 35.8356L525.549 35.3871V23.2587L514.784 29.4843V41.8998Z" fill="black"/>
</g>
<g filter="url(#filter3_d_0_119)">
<path d="M773.324 24.959C773.324 22.9114 771.339 20.7392 767.896 20.7392C764.029 20.7392 759.788 23.5703 759.131 29.2276C758.468 34.9472 762.029 37.4745 765.607 37.4745C769.184 37.4745 771.067 36.0808 772.979 34.2126C771.328 32.1332 769.198 33.1009 768.796 33.3035C768.35 33.5267 767.766 33.8355 766.578 33.8355C765.192 33.8355 763.786 33.2083 763.786 30.6346C772.648 29.7853 773.324 27.0079 773.324 24.959ZM768.932 25.3019C768.875 25.9328 768.616 27.025 764.132 27.6254C765.078 24.2671 766.881 24.0182 767.715 24.0182C768.496 24.0182 768.993 24.6234 768.932 25.3019ZM753.923 25.8474C753.923 25.8474 752.017 31.8245 751.869 32.326C751.818 31.8245 750.423 21.0883 750.423 21.0883C747.177 21.0883 745.44 23.3946 744.525 25.845C744.525 25.845 742.207 31.8391 742.019 32.3406C742.008 31.8708 741.662 25.9072 741.662 25.9072C741.466 22.9101 738.73 21.0955 736.513 21.0955L739.179 37.361C742.585 37.3499 744.408 35.0472 745.37 32.6018C745.37 32.6018 747.409 27.313 747.493 27.0726C747.514 27.302 748.96 37.361 748.96 37.361C752.368 37.361 754.207 35.2047 755.197 32.8471L759.979 21.0955C756.611 21.0955 754.838 23.3958 753.923 25.8474ZM785.842 20.7172C783.747 20.7172 782.132 21.8558 780.773 23.5386L780.775 23.5264L781.984 13.753C779.194 13.753 776.914 16.1814 776.481 19.7837L774.359 37.234C775.969 37.234 777.673 36.7667 778.594 35.5842C779.417 36.6422 780.641 37.4854 782.453 37.4854C787.158 37.4854 790.391 32.0173 790.391 26.8834C790.391 22.1987 788.112 20.7172 785.842 20.7172ZM785.41 29.1008C784.922 31.9709 783.327 33.9062 781.782 33.9062C780.225 33.9062 779.567 33.218 779.567 33.218C779.858 30.7091 780.051 29.1703 780.618 27.8451C781.184 26.5198 782.523 24.405 783.924 24.405C785.286 24.405 785.898 26.2318 785.41 29.1008ZM802.184 21.0968H798.891L798.907 20.9247C799.131 18.7745 799.646 17.6458 801.313 17.4725C802.452 17.3554 802.967 16.7635 803.086 16.1241C803.18 15.6225 803.499 13.8494 803.499 13.8494C796.892 13.8116 794.821 16.6634 794.293 20.9979L794.281 21.0955L794.216 21.098C793.143 21.098 791.966 22.3122 791.759 23.8546L791.687 24.4221H793.884L792.04 39.6869L791.481 42.4301L791.708 42.4374C794.792 42.3202 796.776 39.8882 797.214 36.3469L798.654 24.4221H799.686C800.697 24.4221 801.884 23.4093 802.104 21.7167L802.184 21.0968ZM819.276 20.8137C815.481 20.8137 811.904 23.6069 810.804 28.0013C809.706 32.3944 811.376 37.5818 816.954 37.5818C822.533 37.5818 825.739 32.1746 825.739 27.6852C825.739 23.1932 822.703 20.8137 819.276 20.8137ZM820.815 28.9702C820.618 30.9629 819.74 33.9734 817.338 33.9734C814.927 33.9734 815.269 30.4406 815.503 28.7639C815.753 26.9664 816.763 24.4221 818.912 24.4221C820.854 24.4221 821.037 26.7199 820.815 28.9702ZM844.48 25.8474C844.48 25.8474 842.574 31.8245 842.428 32.326C842.375 31.8245 840.981 21.0883 840.981 21.0883C837.735 21.0883 835.999 23.3946 835.083 25.845C835.083 25.845 832.765 31.8391 832.577 32.3406C832.566 31.8708 832.221 25.9072 832.221 25.9072C832.024 22.9101 829.287 21.0955 827.071 21.0955L829.736 37.361C833.142 37.3499 834.966 35.0472 835.928 32.6018C835.928 32.6018 837.967 27.313 838.051 27.0726C838.072 27.302 839.517 37.361 839.517 37.361C842.926 37.361 844.764 35.2047 845.754 32.8471L850.538 21.0955C847.169 21.0955 845.395 23.3958 844.48 25.8474ZM805.284 13.8494L802.519 36.1516L802.511 36.148L801.95 38.9059L802.176 38.9131C805.153 38.8765 807.266 36.2639 807.664 32.9691L809.261 20.1681C809.745 16.2693 807.421 13.8494 805.284 13.8494Z" fill="black"/>
</g>
<g filter="url(#filter4_d_0_119)">
<path d="M1003.3 37.0556H1007.46V29.925H1009.27L1013.69 37.0556H1018.13L1013.25 29.2016C1015.42 28.5557 1017.05 27.083 1017.05 24.2928V24.1895C1017.05 20.3658 1014.28 18.5832 1009.92 18.5832H1003.3V37.0556ZM1007.46 27.083V21.7868H1009.81C1011.83 21.7868 1012.97 22.4327 1012.97 24.3186V24.422C1012.97 26.2047 1011.91 27.083 1009.81 27.083H1007.46Z" fill="black"/>
<path d="M1025.27 37.3398C1028.97 37.3398 1031.29 35.7122 1031.73 32.7927H1028.19C1027.96 33.9295 1027.11 34.6787 1025.38 34.6787C1023.33 34.6787 1022.12 33.387 1022.02 31.1393H1031.76V30.1059C1031.76 25.2745 1028.66 23.2336 1025.17 23.2336C1021.24 23.2336 1018.22 25.998 1018.22 30.2609V30.4675C1018.22 34.7821 1021.19 37.3398 1025.27 37.3398ZM1022.07 28.8399C1022.35 26.928 1023.49 25.8172 1025.17 25.8172C1026.95 25.8172 1027.99 26.7989 1028.11 28.8399H1022.07Z" fill="black"/>
<path d="M1033.54 37.0558H1037.26V17.4208H1033.54V37.0558Z" fill="black"/>
<path d="M1044.4 37.3394C1046.62 37.3394 1047.99 36.306 1048.68 34.9367V37.0552H1052.4V23.5432H1048.68V31.4747C1048.68 33.4641 1047.44 34.4458 1045.87 34.4458C1044.27 34.4458 1043.52 33.5674 1043.52 31.7331V23.5432H1039.8V32.2498C1039.8 35.7893 1041.76 37.3394 1044.4 37.3394Z" fill="black"/>
<path d="M1054.94 37.0556H1058.69V29.0724C1058.69 27.2381 1059.85 26.308 1061.3 26.308C1062.62 26.308 1063.42 27.083 1063.42 28.8141V37.0556H1067.14V29.0724C1067.14 27.2381 1068.3 26.308 1069.75 26.308C1071.09 26.308 1071.87 27.083 1071.87 28.8141V37.0556H1075.59V28.4007C1075.59 24.8096 1073.65 23.2336 1071.14 23.2336C1069.44 23.2336 1067.68 23.9569 1066.6 25.5846C1065.95 23.9829 1064.61 23.2336 1062.82 23.2336C1060.81 23.2336 1059.36 24.3445 1058.69 25.6104V23.5436H1054.94V37.0556Z" fill="black"/>
<path d="M1084.24 37.3398C1087.93 37.3398 1090.26 35.7122 1090.7 32.7927H1087.16C1086.92 33.9295 1086.07 34.6787 1084.34 34.6787C1082.3 34.6787 1081.09 33.387 1080.98 31.1393H1090.72V30.1059C1090.72 25.2745 1087.62 23.2336 1084.13 23.2336C1080.21 23.2336 1077.18 25.998 1077.18 30.2609V30.4675C1077.18 34.7821 1080.16 37.3398 1084.24 37.3398ZM1081.03 28.8399C1081.32 26.928 1082.46 25.8172 1084.13 25.8172C1085.92 25.8172 1086.95 26.7989 1087.08 28.8399H1081.03Z" fill="black"/>
<path fill-rule="evenodd" clip-rule="evenodd" d="M988.988 19.6883L988.737 19.2398C988.413 18.6973 987.956 18.2465 987.409 17.93L975.371 10.9867C974.826 10.6705 974.207 10.5034 973.577 10.5023H973.056C972.426 10.5034 971.807 10.6705 971.262 10.9867L959.223 17.948C958.68 18.2624 958.228 18.714 957.914 19.2577L957.663 19.7062C957.346 20.2513 957.179 20.8702 957.178 21.5003V35.4049C957.179 36.0351 957.346 36.6539 957.663 37.1991L957.914 37.6476C958.236 38.185 958.686 38.6347 959.223 38.9573L971.28 45.9006C971.822 46.2233 972.443 46.3909 973.074 46.385H973.577C974.207 46.3838 974.826 46.2168 975.371 45.9006L987.409 38.9394C987.958 38.632 988.412 38.1787 988.719 37.6296L988.988 37.1811C989.301 36.6344 989.467 36.0166 989.473 35.387V21.4824C989.471 20.8522 989.304 20.2334 988.988 19.6883ZM973.056 14.0905H973.577L984.09 20.1547L973.325 26.3623L962.561 20.1547L973.056 14.0905ZM975.119 41.8998L985.615 35.8356L985.884 35.3871V23.2587L975.119 29.4843V41.8998Z" fill="black"/>
</g>
<g filter="url(#filter5_d_0_119)">
<path d="M1233.66 24.959C1233.66 22.9114 1231.67 20.7392 1228.23 20.7392C1224.36 20.7392 1220.12 23.5703 1219.47 29.2276C1218.8 34.9472 1222.36 37.4745 1225.94 37.4745C1229.52 37.4745 1231.4 36.0808 1233.31 34.2126C1231.66 32.1332 1229.53 33.1009 1229.13 33.3035C1228.69 33.5267 1228.1 33.8355 1226.91 33.8355C1225.53 33.8355 1224.12 33.2083 1224.12 30.6346C1232.98 29.7853 1233.66 27.0079 1233.66 24.959ZM1229.27 25.3019C1229.21 25.9328 1228.95 27.025 1224.47 27.6254C1225.41 24.2671 1227.22 24.0182 1228.05 24.0182C1228.83 24.0182 1229.33 24.6234 1229.27 25.3019ZM1214.26 25.8474C1214.26 25.8474 1212.35 31.8245 1212.2 32.326C1212.15 31.8245 1210.76 21.0883 1210.76 21.0883C1207.51 21.0883 1205.78 23.3946 1204.86 25.845C1204.86 25.845 1202.54 31.8391 1202.35 32.3406C1202.34 31.8708 1202 25.9072 1202 25.9072C1201.8 22.9101 1199.07 21.0955 1196.85 21.0955L1199.51 37.361C1202.92 37.3499 1204.74 35.0472 1205.7 32.6018C1205.7 32.6018 1207.74 27.313 1207.83 27.0726C1207.85 27.302 1209.29 37.361 1209.29 37.361C1212.7 37.361 1214.54 35.2047 1215.53 32.8471L1220.31 21.0955C1216.95 21.0955 1215.17 23.3958 1214.26 25.8474ZM1246.18 20.7172C1244.08 20.7172 1242.47 21.8558 1241.11 23.5386L1241.11 23.5264L1242.32 13.753C1239.53 13.753 1237.25 16.1814 1236.82 19.7837L1234.69 37.234C1236.3 37.234 1238.01 36.7667 1238.93 35.5842C1239.75 36.6422 1240.98 37.4854 1242.79 37.4854C1247.49 37.4854 1250.73 32.0173 1250.73 26.8834C1250.73 22.1987 1248.45 20.7172 1246.18 20.7172ZM1245.75 29.1008C1245.26 31.9709 1243.66 33.9062 1242.12 33.9062C1240.56 33.9062 1239.9 33.218 1239.9 33.218C1240.19 30.7091 1240.39 29.1703 1240.95 27.8451C1241.52 26.5198 1242.86 24.405 1244.26 24.405C1245.62 24.405 1246.23 26.2318 1245.75 29.1008ZM1262.52 21.0968H1259.23L1259.24 20.9247C1259.47 18.7745 1259.98 17.6458 1261.65 17.4725C1262.79 17.3554 1263.3 16.7635 1263.42 16.1241C1263.52 15.6225 1263.83 13.8494 1263.83 13.8494C1257.23 13.8116 1255.16 16.6634 1254.63 20.9979L1254.62 21.0955L1254.55 21.098C1253.48 21.098 1252.3 22.3122 1252.09 23.8546L1252.02 24.4221H1254.22L1252.38 39.6869L1251.82 42.4301L1252.04 42.4374C1255.13 42.3202 1257.11 39.8882 1257.55 36.3469L1258.99 24.4221H1260.02C1261.03 24.4221 1262.22 23.4093 1262.44 21.7167L1262.52 21.0968ZM1279.61 20.8137C1275.82 20.8137 1272.24 23.6069 1271.14 28.0013C1270.04 32.3944 1271.71 37.5818 1277.29 37.5818C1282.87 37.5818 1286.07 32.1746 1286.07 27.6852C1286.07 23.1932 1283.04 20.8137 1279.61 20.8137ZM1281.15 28.9702C1280.95 30.9629 1280.07 33.9734 1277.67 33.9734C1275.26 33.9734 1275.6 30.4406 1275.84 28.7639C1276.09 26.9664 1277.1 24.4221 1279.25 24.4221C1281.19 24.4221 1281.37 26.7199 1281.15 28.9702ZM1304.82 25.8474C1304.82 25.8474 1302.91 31.8245 1302.76 32.326C1302.71 31.8245 1301.32 21.0883 1301.32 21.0883C1298.07 21.0883 1296.33 23.3946 1295.42 25.845C1295.42 25.845 1293.1 31.8391 1292.91 32.3406C1292.9 31.8708 1292.56 25.9072 1292.56 25.9072C1292.36 22.9101 1289.62 21.0955 1287.41 21.0955L1290.07 37.361C1293.48 37.3499 1295.3 35.0472 1296.26 32.6018C1296.26 32.6018 1298.3 27.313 1298.39 27.0726C1298.41 27.302 1299.85 37.361 1299.85 37.361C1303.26 37.361 1305.1 35.2047 1306.09 32.8471L1310.87 21.0955C1307.5 21.0955 1305.73 23.3958 1304.82 25.8474ZM1265.62 13.8494L1262.85 36.1516L1262.85 36.148L1262.29 38.9059L1262.51 38.9131C1265.49 38.8765 1267.6 36.2639 1268 32.9691L1269.6 20.1681C1270.08 16.2693 1267.76 13.8494 1265.62 13.8494Z" fill="black"/>
</g>
<defs>
<filter id="filter0_d_0_119" x="0" y="-6.24866" width="226.991" height="76.8411" filterUnits="userSpaceOnUse" color-interpolation-filters="sRGB">
<feFlood flood-opacity="0" result="BackgroundImageFix"/>
<feColorMatrix in="SourceAlpha" type="matrix" values="0 0 0 0 0 0 0 0 0 0 0 0 0 0 0 0 0 0 127 0" result="hardAlpha"/>
<feOffset dx="10.4121" dy="4.16486"/>
<feGaussianBlur stdDeviation="5.20607"/>
<feComposite in2="hardAlpha" operator="out"/>
<feColorMatrix type="matrix" values="0 0 0 0 0 0 0 0 0 0 0 0 0 0 0 0 0 0 0.25 0"/>
<feBlend mode="normal" in2="BackgroundImageFix" result="effect1_dropShadow_0_119"/>
<feBlend mode="normal" in="SourceGraphic" in2="effect1_dropShadow_0_119" result="shape"/>
</filter>
<filter id="filter1_d_0_119" x="230.168" y="-2.24778" width="226.991" height="68.8394" filterUnits="userSpaceOnUse" color-interpolation-filters="sRGB">
<feFlood flood-opacity="0" result="BackgroundImageFix"/>
<feColorMatrix in="SourceAlpha" type="matrix" values="0 0 0 0 0 0 0 0 0 0 0 0 0 0 0 0 0 0 127 0" result="hardAlpha"/>
<feOffset dx="10.4121" dy="4.16486"/>
<feGaussianBlur stdDeviation="5.20607"/>
<feComposite in2="hardAlpha" operator="out"/>
<feColorMatrix type="matrix" values="0 0 0 0 0 0 0 0 0 0 0 0 0 0 0 0 0 0 0.25 0"/>
<feBlend mode="normal" in2="BackgroundImageFix" result="effect1_dropShadow_0_119"/>
<feBlend mode="normal" in="SourceGraphic" in2="effect1_dropShadow_0_119" result="shape"/>
</filter>
<filter id="filter2_d_0_119" x="460.335" y="-6.24866" width="226.991" height="76.8411" filterUnits="userSpaceOnUse" color-interpolation-filters="sRGB">
<feFlood flood-opacity="0" result="BackgroundImageFix"/>
<feColorMatrix in="SourceAlpha" type="matrix" values="0 0 0 0 0 0 0 0 0 0 0 0 0 0 0 0 0 0 127 0" result="hardAlpha"/>
<feOffset dx="10.4121" dy="4.16486"/>
<feGaussianBlur stdDeviation="5.20607"/>
<feComposite in2="hardAlpha" operator="out"/>
<feColorMatrix type="matrix" values="0 0 0 0 0 0 0 0 0 0 0 0 0 0 0 0 0 0 0.25 0"/>
<feBlend mode="normal" in2="BackgroundImageFix" result="effect1_dropShadow_0_119"/>
<feBlend mode="normal" in="SourceGraphic" in2="effect1_dropShadow_0_119" result="shape"/>
</filter>
<filter id="filter3_d_0_119" x="690.503" y="-2.24778" width="226.991" height="68.8394" filterUnits="userSpaceOnUse" color-interpolation-filters="sRGB">
<feFlood flood-opacity="0" result="BackgroundImageFix"/>
<feColorMatrix in="SourceAlpha" type="matrix" values="0 0 0 0 0 0 0 0 0 0 0 0 0 0 0 0 0 0 127 0" result="hardAlpha"/>
<feOffset dx="10.4121" dy="4.16486"/>
<feGaussianBlur stdDeviation="5.20607"/>
<feComposite in2="hardAlpha" operator="out"/>
<feColorMatrix type="matrix" values="0 0 0 0 0 0 0 0 0 0 0 0 0 0 0 0 0 0 0.25 0"/>
<feBlend mode="normal" in2="BackgroundImageFix" result="effect1_dropShadow_0_119"/>
<feBlend mode="normal" in="SourceGraphic" in2="effect1_dropShadow_0_119" result="shape"/>
</filter>
<filter id="filter4_d_0_119" x="920.67" y="-6.24866" width="226.991" height="76.8411" filterUnits="userSpaceOnUse" color-interpolation-filters="sRGB">
<feFlood flood-opacity="0" result="BackgroundImageFix"/>
<feColorMatrix in="SourceAlpha" type="matrix" values="0 0 0 0 0 0 0 0 0 0 0 0 0 0 0 0 0 0 127 0" result="hardAlpha"/>
<feOffset dx="10.4121" dy="4.16486"/>
<feGaussianBlur stdDeviation="5.20607"/>
<feComposite in2="hardAlpha" operator="out"/>
<feColorMatrix type="matrix" values="0 0 0 0 0 0 0 0 0 0 0 0 0 0 0 0 0 0 0.25 0"/>
<feBlend mode="normal" in2="BackgroundImageFix" result="effect1_dropShadow_0_119"/>
<feBlend mode="normal" in="SourceGraphic" in2="effect1_dropShadow_0_119" result="shape"/>
</filter>
<filter id="filter5_d_0_119" x="1150.84" y="-2.24778" width="226.991" height="68.8394" filterUnits="userSpaceOnUse" color-interpolation-filters="sRGB">
<feFlood flood-opacity="0" result="BackgroundImageFix"/>
<feColorMatrix in="SourceAlpha" type="matrix" values="0 0 0 0 0 0 0 0 0 0 0 0 0 0 0 0 0 0 127 0" result="hardAlpha"/>
<feOffset dx="10.4121" dy="4.16486"/>
<feGaussianBlur stdDeviation="5.20607"/>
<feComposite in2="hardAlpha" operator="out"/>
<feColorMatrix type="matrix" values="0 0 0 0 0 0 0 0 0 0 0 0 0 0 0 0 0 0 0.25 0"/>
<feBlend mode="normal" in2="BackgroundImageFix" result="effect1_dropShadow_0_119"/>
<feBlend mode="normal" in="SourceGraphic" in2="effect1_dropShadow_0_119" result="shape"/>
</filter>
</defs>
</svg>
