<svg width="61" height="26" viewBox="0 0 61 26" fill="none" xmlns="http://www.w3.org/2000/svg">
<g clip-path="url(#clip0_0_71)">
<path d="M0.541952 20.2221H12.756V16.7979H4.90988V0.943888H0.541952V20.2221Z" fill="black"/>
<path d="M20.7878 17.5522C18.5769 17.5522 17.3366 15.9344 17.3366 13.2381V13.0224C17.3366 10.3262 18.6308 8.76237 20.7878 8.76237C22.9718 8.76237 24.239 10.3801 24.239 13.0764V13.2651C24.239 15.9344 22.9718 17.5522 20.7878 17.5522ZM20.7608 20.518C24.9939 20.518 28.2025 17.687 28.2025 13.2381V13.0224C28.2025 8.62756 25.0209 5.79649 20.7878 5.79649C16.5547 5.79649 13.3461 8.68148 13.3461 13.1033V13.319C13.3461 17.7139 16.5547 20.518 20.7608 20.518Z" fill="black"/>
<path d="M36.27 25.4252C40.9075 25.4252 43.6847 23.2952 43.7116 19.116V6.12004H39.829V8.22312C39.0201 6.79411 37.645 5.79649 35.3532 5.79649C31.8481 5.79649 29.1518 8.62756 29.1518 12.6719V12.8607C29.1518 17.0399 31.8751 19.6013 35.2993 19.6013C37.3754 19.6013 39.0471 18.361 39.829 16.9859V19.116C39.829 21.3269 38.6427 22.5672 36.27 22.5672C34.2747 22.5672 33.385 21.7583 33.1423 20.518H29.2597C29.6372 23.43 31.7133 25.4252 36.27 25.4252ZM36.4587 16.6624C34.5174 16.6624 33.1423 15.2064 33.1423 12.8607V12.645C33.1423 10.3262 34.3556 8.76237 36.5396 8.76237C38.6696 8.76237 39.9369 10.2183 39.9369 12.618V12.8067C39.9369 15.2064 38.5078 16.6624 36.4587 16.6624Z" fill="black"/>
<path d="M52.926 17.5522C50.7151 17.5522 49.4748 15.9344 49.4748 13.2381V13.0224C49.4748 10.3262 50.769 8.76237 52.926 8.76237C55.11 8.76237 56.3772 10.3801 56.3772 13.0764V13.2651C56.3772 15.9344 55.11 17.5522 52.926 17.5522ZM52.899 20.518C57.1322 20.518 60.3407 17.687 60.3407 13.2381V13.0224C60.3407 8.62756 57.1591 5.79649 52.926 5.79649C48.6929 5.79649 45.4843 8.68148 45.4843 13.1033V13.319C45.4843 17.7139 48.6929 20.518 52.899 20.518Z" fill="black"/>
</g>
<defs>
<clipPath id="clip0_0_71">
<rect width="60.5063" height="25.9312" fill="white" transform="scale(1.00264)"/>
</clipPath>
</defs>
</svg>
