<svg width="90" height="120" viewBox="0 0 90 120" fill="none" xmlns="http://www.w3.org/2000/svg">
<g filter="url(#filter0_d_0_394)">
<ellipse cx="59.8654" cy="59.0429" rx="0.128551" ry="0.849673" fill="white"/>
</g>
<path d="M0.0754167 0.734712L0.0770509 0.770252C0.0779343 0.768478 0.0787377 0.765292 0.0793905 0.760977L0.0754167 0.734712ZM0.0595691 0.750313V0.787457H0.0595727L0.0595691 0.750313ZM0.113518 0.393728L0.119138 0.393752V0.393728H0.113518ZM0.111158 0.498475L0.115132 0.52474C0.115785 0.520426 0.116267 0.515116 0.116535 0.509276L0.111158 0.498475ZM0.0737825 0.699172C0.0691734 0.708432 0.0643827 0.713148 0.0595655 0.713168L0.0595727 0.787457C0.0654949 0.78743 0.0713844 0.781633 0.0770509 0.770252L0.0737825 0.699172ZM0.0595691 0.713168C0.0500104 0.713168 0.0406663 0.694433 0.0327186 0.659333L0.0264743 0.721102C0.0362704 0.764365 0.0477874 0.787457 0.0595691 0.787457V0.713168ZM0.0327186 0.659333C0.0247708 0.624233 0.0185763 0.574344 0.0149183 0.515974L0.00453445 0.544403C0.00904309 0.616347 0.0166782 0.677837 0.0264743 0.721102L0.0327186 0.659333ZM0.0149183 0.515974C0.0112604 0.457602 0.0103033 0.393375 0.0121681 0.331409L0.00114462 0.316916C-0.00115385 0.393292 2.58017e-05 0.472456 0.00453445 0.544403L0.0149183 0.515974ZM0.0121681 0.331409C0.0140329 0.269444 0.0186359 0.212525 0.0253949 0.16785L0.0174474 0.11532C0.00911651 0.170385 0.00344311 0.24054 0.00114462 0.316916L0.0121681 0.331409ZM0.0253949 0.16785C0.0321539 0.123176 0.0407654 0.092752 0.0501405 0.0804264L0.0479477 0.0075655C0.0363925 0.0227576 0.0257783 0.0602566 0.0174474 0.11532L0.0253949 0.16785ZM0.0501405 0.0804264C0.0595156 0.0681007 0.0692327 0.0744268 0.0780642 0.0986044L0.0823653 0.0299709C0.0714802 0.000170539 0.059503 -0.00762647 0.0479477 0.0075655L0.0501405 0.0804264ZM0.0780642 0.0986044C0.0868953 0.122782 0.0944433 0.163726 0.0997537 0.216257L0.109099 0.174985C0.102553 0.110236 0.0932501 0.0597713 0.0823653 0.0299709L0.0780642 0.0986044ZM0.0997537 0.216257C0.105064 0.268789 0.107899 0.330549 0.107899 0.393728H0.119138C0.119138 0.315856 0.115644 0.239733 0.109099 0.174985L0.0997537 0.216257ZM0.107899 0.393705C0.107896 0.425545 0.107182 0.457209 0.105781 0.487673L0.116535 0.509276C0.118257 0.471823 0.119134 0.432896 0.119138 0.393752L0.107899 0.393705ZM0.107184 0.47221L0.0714429 0.708447L0.0793905 0.760977L0.115132 0.52474L0.107184 0.47221Z" fill="#FD650B"/>
<path d="M0.0878829 0.501198C0.0894407 0.483456 0.088528 0.460725 0.0858436 0.450427C0.0831592 0.440129 0.0797203 0.446163 0.0781622 0.463905L0.0878829 0.501198ZM0.0411267 0.463905C0.0395686 0.446163 0.0361295 0.440129 0.0334453 0.450427C0.030761 0.460725 0.029848 0.483456 0.0314061 0.501198L0.0411267 0.463905ZM0.0781622 0.463905C0.0762796 0.485342 0.0735783 0.503135 0.0703285 0.515503L0.075937 0.579882C0.0808927 0.561021 0.0850119 0.533888 0.0878829 0.501198L0.0781622 0.463905ZM0.0703285 0.515503C0.0670788 0.527871 0.0633945 0.534381 0.0596444 0.534381V0.608669C0.065363 0.608669 0.0709813 0.598742 0.075937 0.579882L0.0703285 0.515503ZM0.0596444 0.534381C0.0558944 0.534381 0.0522101 0.527871 0.0489604 0.515503L0.0433519 0.579882C0.0483076 0.598742 0.0539259 0.608669 0.0596444 0.608669V0.534381ZM0.0489604 0.515503C0.0457105 0.503135 0.0430092 0.485342 0.0411267 0.463905L0.0314061 0.501198C0.0342768 0.533888 0.0383962 0.561021 0.0433519 0.579882L0.0489604 0.515503Z" fill="#FD650B"/>
<path d="M0.074262 0.326498C0.0779864 0.326498 0.0810057 0.306542 0.0810057 0.281925C0.0810057 0.257308 0.0779864 0.237352 0.074262 0.237352C0.0705376 0.237352 0.0675183 0.257308 0.0675183 0.281925C0.0675183 0.306542 0.0705376 0.326498 0.074262 0.326498Z" fill="#FD650B"/>
<path d="M0.0337266 0.326498C0.037451 0.326498 0.0404703 0.306542 0.0404703 0.281925C0.0404703 0.257308 0.037451 0.237352 0.0337266 0.237352C0.0300022 0.237352 0.0269829 0.257308 0.0269829 0.281925C0.0269829 0.306542 0.0300022 0.326498 0.0337266 0.326498Z" fill="#FD650B"/>
<defs>
<filter id="filter0_d_0_394" x="29.7309" y="58.1932" width="60.2691" height="61.7115" filterUnits="userSpaceOnUse" color-interpolation-filters="sRGB">
<feFlood flood-opacity="0" result="BackgroundImageFix"/>
<feColorMatrix in="SourceAlpha" type="matrix" values="0 0 0 0 0 0 0 0 0 0 0 0 0 0 0 0 0 0 127 0" result="hardAlpha"/>
<feOffset dy="30"/>
<feGaussianBlur stdDeviation="15"/>
<feComposite in2="hardAlpha" operator="out"/>
<feColorMatrix type="matrix" values="0 0 0 0 0.571389 0 0 0 0 0.682951 0 0 0 0 0.733333 0 0 0 0.2 0"/>
<feBlend mode="normal" in2="BackgroundImageFix" result="effect1_dropShadow_0_394"/>
<feBlend mode="normal" in="SourceGraphic" in2="effect1_dropShadow_0_394" result="shape"/>
</filter>
</defs>
</svg>
