<svg width="32" height="32" viewBox="0 0 32 32" fill="none" xmlns="http://www.w3.org/2000/svg">
<path d="M15.9974 2.66699C13.3604 2.66699 10.7825 3.44898 8.5898 4.91406C6.39714 6.37915 4.68817 8.46153 3.67901 10.8979C2.66984 13.3342 2.4058 16.0151 2.92026 18.6015C3.43473 21.188 4.70461 23.5637 6.56931 25.4284C8.43401 27.2931 10.8098 28.563 13.3962 29.0775C15.9826 29.5919 18.6635 29.3279 21.0999 28.3187C23.5362 27.3096 25.6186 25.6006 27.0837 23.4079C28.5488 21.2153 29.3308 18.6374 29.3308 16.0003C29.3308 14.2494 28.9859 12.5156 28.3158 10.8979C27.6458 9.2802 26.6636 7.81035 25.4255 6.57223C24.1874 5.33412 22.7176 4.35199 21.0999 3.68193C19.4822 3.01187 17.7484 2.66699 15.9974 2.66699ZM15.9974 26.667C13.8878 26.667 11.8254 26.0414 10.0713 24.8693C8.31719 23.6973 6.95002 22.0314 6.14268 20.0823C5.33535 18.1332 5.12411 15.9885 5.53569 13.9194C5.94727 11.8502 6.96317 9.94961 8.45493 8.45785C9.94669 6.96609 11.8473 5.95019 13.9165 5.53861C15.9856 5.12704 18.1303 5.33827 20.0794 6.14561C22.0285 6.95294 23.6944 8.32012 24.8664 10.0742C26.0385 11.8284 26.6641 13.8907 26.6641 16.0003C26.6641 18.8293 25.5403 21.5424 23.5399 23.5428C21.5395 25.5432 18.8264 26.667 15.9974 26.667Z" fill="#FD650B"/>
<path d="M15.9974 14.6667C13.3307 14.6667 13.3307 13.8267 13.3307 13.3333C13.3307 12.84 14.2641 12 15.9974 12C17.7307 12 17.8507 12.8533 17.8641 13.3333H20.5307C20.5127 12.425 20.186 11.5499 19.6044 10.8519C19.0228 10.154 18.2209 9.67486 17.3307 9.49333V8H14.6641V9.45333C11.9974 9.89333 10.6641 11.6133 10.6641 13.3333C10.6641 14.8267 11.3574 17.3333 15.9974 17.3333C18.6641 17.3333 18.6641 18.24 18.6641 18.6667C18.6641 19.0933 17.8374 20 15.9974 20C13.5441 20 13.3307 18.8533 13.3307 18.6667H10.6641C10.6641 19.8933 11.5441 22.0667 14.6641 22.56V24H17.3307V22.56C19.9974 22.1067 21.3308 20.3867 21.3308 18.6667C21.3308 17.1733 20.6374 14.6667 15.9974 14.6667Z" fill="#FD650B"/>
</svg>
