<svg width="24" height="24" viewBox="0 0 24 24" fill="none" xmlns="http://www.w3.org/2000/svg">
<path fill-rule="evenodd" clip-rule="evenodd" d="M4.50014 3.24264C3.6717 3.24264 3.00013 3.91421 3.00013 4.74265V19.7428C3.00013 20.5712 3.6717 21.2428 4.50014 21.2428H19.5003C20.3287 21.2428 21.0003 20.5712 21.0003 19.7428V4.74265C21.0003 3.91421 20.3287 3.24264 19.5003 3.24264H4.50014ZM8.52093 7.24539C8.52656 8.20165 7.81078 8.79088 6.96139 8.78666C6.16122 8.78244 5.46372 8.1454 5.46794 7.2468C5.47216 6.40164 6.14013 5.72241 7.0078 5.7421C7.88812 5.76179 8.52656 6.40727 8.52093 7.24539ZM12.2799 10.0045H9.75989H9.75848V18.5644H12.4219V18.3647C12.4219 17.9848 12.4216 17.6048 12.4213 17.2247C12.4205 16.2108 12.4196 15.1959 12.4248 14.1824C12.4262 13.9363 12.4374 13.6804 12.5007 13.4455C12.7383 12.568 13.5273 12.0013 14.4076 12.1406C14.9729 12.2291 15.3469 12.5568 15.5044 13.0898C15.6015 13.423 15.6451 13.7816 15.6493 14.129C15.6607 15.1766 15.6591 16.2242 15.6575 17.272C15.6569 17.6418 15.6563 18.0118 15.6563 18.3816V18.563H18.3283V18.3577C18.3283 17.9057 18.3281 17.4538 18.3278 17.0019C18.3273 15.8723 18.3267 14.7428 18.3297 13.6129C18.3311 13.1024 18.2763 12.599 18.1511 12.1054C17.9641 11.3713 17.5774 10.7638 16.9487 10.3251C16.5029 10.0129 16.0135 9.81179 15.4665 9.78929C15.4042 9.7867 15.3414 9.78331 15.2783 9.7799C14.9986 9.76478 14.7143 9.74942 14.4469 9.80335C13.6819 9.95664 13.0098 10.3068 12.5021 10.9241C12.4431 10.9949 12.3854 11.0668 12.2993 11.1741L12.2799 11.1984V10.0045ZM5.68179 18.5672H8.33259V10.01H5.68179V18.5672Z" fill="black"/>
</svg>
