<svg width="32" height="32" viewBox="0 0 32 32" fill="none" xmlns="http://www.w3.org/2000/svg">
<path d="M15.9974 22.667L17.3307 20.0003V13.1443C19.6254 12.5483 21.3308 10.4777 21.3308 8.00032C21.3308 5.05899 18.9387 2.66699 15.9974 2.66699C13.0561 2.66699 10.6641 5.05899 10.6641 8.00032C10.6641 10.4777 12.3694 12.5483 14.6641 13.1443V20.0003L15.9974 22.667Z" fill="#FD650B"/>
<path d="M21.6868 14.0843L20.9761 16.655C24.4308 17.6097 26.6641 19.4457 26.6641 21.3337C26.6641 23.8563 22.2841 26.667 15.9974 26.667C9.71073 26.667 5.33073 23.8563 5.33073 21.3337C5.33073 19.4457 7.56406 17.6097 11.0201 16.6537L10.3094 14.083C5.59339 15.387 2.66406 18.1643 2.66406 21.3337C2.66406 25.819 8.52139 29.3337 15.9974 29.3337C23.4734 29.3337 29.3308 25.819 29.3308 21.3337C29.3308 18.1643 26.4014 15.387 21.6868 14.0843Z" fill="#FD650B"/>
</svg>
