<svg width="19" height="19" viewBox="0 0 19 19" fill="none" xmlns="http://www.w3.org/2000/svg">
<path d="M18.747 1.47418L15.9033 4.31754L17.8835 6.2974C18.0042 6.41818 18.0864 6.57204 18.1198 6.73954C18.1531 6.90704 18.136 7.08066 18.0706 7.23843C18.0052 7.39622 17.8945 7.53107 17.7525 7.62596C17.6105 7.72085 17.4436 7.7715 17.2728 7.77153H12.0909C11.8619 7.77151 11.6422 7.68053 11.4802 7.5186C11.3183 7.35667 11.2273 7.13704 11.2273 6.90802V1.72705C11.2273 1.55627 11.278 1.38933 11.3729 1.24733C11.4678 1.10534 11.6027 0.994669 11.7604 0.929312C11.9182 0.863955 12.092 0.846848 12.2594 0.880153C12.427 0.913459 12.5809 0.995681 12.7016 1.11642L14.6818 3.09629L17.5256 0.252929C17.6059 0.17274 17.7011 0.109131 17.8059 0.0657337C17.9106 0.0223362 18.0229 0 18.1363 0C18.2498 0 18.3621 0.0223362 18.4669 0.0657337C18.5717 0.109131 18.6669 0.17274 18.747 0.252929C18.8273 0.333117 18.8909 0.428314 18.9343 0.533085C18.9778 0.637857 19 0.750149 19 0.863553C19 0.976957 18.9778 1.08925 18.9343 1.19403C18.8909 1.2988 18.8273 1.39399 18.747 1.47418ZM6.90913 11.2255H1.72732C1.55652 11.2255 1.38955 11.2762 1.24753 11.3711C1.10552 11.466 0.994828 11.6008 0.929461 11.7586C0.864093 11.9163 0.846983 12.09 0.880294 12.2575C0.913605 12.425 0.995841 12.5789 1.1166 12.6996L3.09678 14.6795L0.252969 17.5228C0.172768 17.6031 0.109149 17.6983 0.0657442 17.803C0.0223397 17.9078 0 18.02 0 18.1334C0 18.2469 0.0223397 18.3591 0.0657442 18.464C0.109149 18.5687 0.172768 18.6639 0.252969 18.744C0.414942 18.906 0.634625 18.997 0.863691 18.997C0.977113 18.997 1.08942 18.9747 1.19422 18.9313C1.299 18.8879 1.39422 18.8243 1.47442 18.744L4.31823 15.9008L6.29841 17.8806C6.4192 18.0013 6.57309 18.0835 6.74061 18.1169C6.90815 18.1502 7.08179 18.1331 7.23959 18.0677C7.3974 18.0024 7.53227 17.8917 7.62718 17.7497C7.72208 17.6076 7.77274 17.4408 7.77277 17.27V12.089C7.77276 11.86 7.68176 11.6404 7.5198 11.4784C7.35784 11.3165 7.13818 11.2255 6.90913 11.2255Z" fill="#636363"/>
</svg>
