<svg width="90" height="120" viewBox="0 0 90 120" fill="none" xmlns="http://www.w3.org/2000/svg">
<g filter="url(#filter0_d_0_384)">
<ellipse cx="59.866" cy="59.0973" rx="0.125645" ry="0.84974" fill="white"/>
</g>
<path d="M0.0814202 0.476318C0.0818123 0.460368 0.0801212 0.445393 0.0776429 0.442869C0.0751647 0.440345 0.0728378 0.451229 0.0724456 0.467178L0.0814202 0.476318ZM0.0515765 0.601487C0.0490982 0.604011 0.0474071 0.618986 0.0477992 0.634935C0.0481914 0.650885 0.0505183 0.661769 0.0529966 0.659245L0.0515765 0.601487ZM0.0724456 0.467178C0.071617 0.500881 0.0691513 0.53203 0.0654023 0.556158L0.0718272 0.597507C0.0769334 0.564645 0.0802915 0.522221 0.0814202 0.476318L0.0724456 0.467178ZM0.0654023 0.556158C0.0616532 0.580286 0.0568133 0.596154 0.0515765 0.601487L0.0529966 0.659245C0.0601291 0.651981 0.066721 0.630369 0.0718272 0.597507L0.0654023 0.556158Z" fill="#FD650B"/>
<path d="M0.0227156 0.213806L0.0264891 0.177286C0.0249833 0.170841 0.0231413 0.168513 0.0213686 0.170813C0.0195959 0.173114 0.018038 0.179854 0.0170379 0.189551L0.0227156 0.213806ZM0.00681467 0.486453H0H0.00681467ZM0.10222 0.486453H0.109035H0.10222ZM0.0651937 0.043858L0.0700039 0.0127929C0.0684374 0.00274512 0.0662109 -0.00178447 0.0640315 0.000643185C0.0618522 0.00307084 0.0599913 0.0121543 0.0590405 0.0250064L0.0651937 0.043858ZM0.0454311 0.311023L0.0416576 0.347541C0.0433032 0.354585 0.0453428 0.356684 0.0472476 0.353293C0.0491524 0.349904 0.0507347 0.341358 0.0515841 0.329875L0.0454311 0.311023ZM0.0170379 0.189551C0.00808306 0.276371 0 0.382578 0 0.486453H0.0136293C0.0136293 0.40905 0.0198571 0.320822 0.0283932 0.23806L0.0170379 0.189551ZM0 0.486453C0 0.579506 0.00574377 0.668747 0.0159678 0.734548L0.0256052 0.672525C0.0179372 0.623174 0.0136293 0.556244 0.0136293 0.486453H0ZM0.0159678 0.734548C0.0261917 0.800346 0.0400584 0.837312 0.0545173 0.837312V0.749597C0.0436732 0.749597 0.0332732 0.721873 0.0256052 0.672525L0.0159678 0.734548ZM0.0545173 0.837312C0.0689763 0.837312 0.0828427 0.800346 0.093067 0.734548L0.0834297 0.672525C0.0757614 0.721873 0.0653613 0.749597 0.0545173 0.749597V0.837312ZM0.093067 0.734548C0.103291 0.668747 0.109035 0.579506 0.109035 0.486453H0.0954054C0.0954054 0.556244 0.0910976 0.623174 0.0834297 0.672525L0.093067 0.734548ZM0.109035 0.486453C0.109035 0.27633 0.0864745 0.118429 0.0700039 0.0127929L0.0603834 0.0749231C0.0770775 0.181995 0.0954054 0.316477 0.0954054 0.486453H0.109035ZM0.0590405 0.0250064L0.0392781 0.292171L0.0515841 0.329875L0.0713468 0.0627095L0.0590405 0.0250064ZM0.0492047 0.274503L0.0264891 0.177286L0.018942 0.250325L0.0416576 0.347541L0.0492047 0.274503Z" fill="#FD650B"/>
<defs>
<filter id="filter0_d_0_384" x="29.7321" y="58.2476" width="60.2679" height="61.7163" filterUnits="userSpaceOnUse" color-interpolation-filters="sRGB">
<feFlood flood-opacity="0" result="BackgroundImageFix"/>
<feColorMatrix in="SourceAlpha" type="matrix" values="0 0 0 0 0 0 0 0 0 0 0 0 0 0 0 0 0 0 127 0" result="hardAlpha"/>
<feOffset dy="30"/>
<feGaussianBlur stdDeviation="15"/>
<feComposite in2="hardAlpha" operator="out"/>
<feColorMatrix type="matrix" values="0 0 0 0 0.571389 0 0 0 0 0.682951 0 0 0 0 0.733333 0 0 0 0.2 0"/>
<feBlend mode="normal" in2="BackgroundImageFix" result="effect1_dropShadow_0_384"/>
<feBlend mode="normal" in="SourceGraphic" in2="effect1_dropShadow_0_384" result="shape"/>
</filter>
</defs>
</svg>
