<svg width="20" height="17" viewBox="0 0 20 17" fill="none" xmlns="http://www.w3.org/2000/svg">
<path d="M16.6667 3.06173H1.33333V0.765432C1.33333 0.562427 1.26309 0.367737 1.13807 0.224189C1.01305 0.0806436 0.843477 0 0.666667 0C0.489856 0 0.320286 0.0806436 0.195262 0.224189C0.0702379 0.367737 0 0.562427 0 0.765432V16.0741C0 16.2771 0.0702379 16.4717 0.195262 16.6153C0.320286 16.7589 0.489856 16.8395 0.666667 16.8395C0.843477 16.8395 1.01305 16.7589 1.13807 16.6153C1.26309 16.4717 1.33333 16.2771 1.33333 16.0741V13.0123H18.6667V16.0741C18.6667 16.2771 18.7369 16.4717 18.862 16.6153C18.987 16.7589 19.1565 16.8395 19.3333 16.8395C19.5102 16.8395 19.6797 16.7589 19.8047 16.6153C19.9298 16.4717 20 16.2771 20 16.0741V6.88889C19.999 5.87422 19.6475 4.90142 19.0226 4.18394C18.3977 3.46646 17.5504 3.06287 16.6667 3.06173ZM1.33333 4.59259H7.33333V11.4815H1.33333V4.59259Z" fill="#636363"/>
</svg>
